<svg width="50" height="50" viewBox="0 0 50 50" fill="none" xmlns="http://www.w3.org/2000/svg">
<path d="M25.0067 17.3084C20.7492 17.3084 17.3151 20.7425 17.3151 25C17.3151 29.2575 20.7492 32.6916 25.0067 32.6916C29.2642 32.6916 32.6983 29.2575 32.6983 25C32.6983 20.7425 29.2642 17.3084 25.0067 17.3084ZM25.0067 30.0006C22.2554 30.0006 20.0061 27.758 20.0061 25C20.0061 22.242 22.2487 19.9994 25.0067 19.9994C27.7647 19.9994 30.0073 22.242 30.0073 25C30.0073 27.758 27.758 30.0006 25.0067 30.0006ZM34.807 16.9938C34.807 17.9912 34.0037 18.7878 33.0129 18.7878C32.0155 18.7878 31.2189 17.9845 31.2189 16.9938C31.2189 16.003 32.0222 15.1997 33.0129 15.1997C34.0037 15.1997 34.807 16.003 34.807 16.9938ZM39.9013 18.8146C39.7875 16.4114 39.2385 14.2826 37.478 12.5287C35.7241 10.7749 33.5953 10.2259 31.1921 10.1054C28.7153 9.96486 21.2914 9.96486 18.8146 10.1054C16.4181 10.2192 14.2893 10.7682 12.5287 12.522C10.7682 14.2759 10.2259 16.4047 10.1054 18.8079C9.96486 21.2847 9.96486 28.7086 10.1054 31.1854C10.2192 33.5886 10.7682 35.7174 12.5287 37.4713C14.2893 39.2251 16.4114 39.7741 18.8146 39.8946C21.2914 40.0351 28.7153 40.0351 31.1921 39.8946C33.5953 39.7808 35.7241 39.2318 37.478 37.4713C39.2318 35.7174 39.7808 33.5886 39.9013 31.1854C40.0418 28.7086 40.0418 21.2914 39.9013 18.8146ZM36.7014 33.843C36.1793 35.1551 35.1685 36.1659 33.8497 36.6947C31.8749 37.478 27.189 37.2972 25.0067 37.2972C22.8244 37.2972 18.1318 37.4713 16.1637 36.6947C14.8516 36.1726 13.8408 35.1618 13.3119 33.843C12.5287 31.8682 12.7095 27.1823 12.7095 25C12.7095 22.8177 12.5354 18.1251 13.3119 16.157C13.8341 14.8449 14.8449 13.8341 16.1637 13.3053C18.1385 12.522 22.8244 12.7028 25.0067 12.7028C27.189 12.7028 31.8816 12.5287 33.8497 13.3053C35.1618 13.8274 36.1726 14.8382 36.7014 16.157C37.4847 18.1318 37.3039 22.8177 37.3039 25C37.3039 27.1823 37.4847 31.8749 36.7014 33.843Z" fill="white"/>
<rect x="1" y="1" width="48" height="48" stroke="white" stroke-width="2"/>
</svg>
