<svg width="50" height="50" viewBox="0 0 50 50" fill="none" xmlns="http://www.w3.org/2000/svg">
<path d="M16.7153 40H10.4955V19.9705H16.7153V40ZM13.6021 17.2383C11.6132 17.2383 10 15.591 10 13.6021C10 12.6468 10.3795 11.7306 11.055 11.055C11.7306 10.3795 12.6468 10 13.6021 10C14.5574 10 15.4736 10.3795 16.1492 11.055C16.8247 11.7306 17.2042 12.6468 17.2042 13.6021C17.2042 15.591 15.5903 17.2383 13.6021 17.2383ZM39.994 40H33.7876V30.2498C33.7876 27.9261 33.7407 24.9461 30.5538 24.9461C27.32 24.9461 26.8245 27.4707 26.8245 30.0824V40H20.6114V19.9705H26.5767V22.7027H26.6638C27.4941 21.129 29.5225 19.4683 32.5487 19.4683C38.8435 19.4683 40.0007 23.6135 40.0007 28.9975V40H39.994Z" fill="white"/>
<rect x="1" y="1" width="48" height="48" stroke="white" stroke-width="2"/>
</svg>
