<svg width="299" height="38" viewBox="0 0 299 38" fill="none" xmlns="http://www.w3.org/2000/svg">
<path d="M1.35 37.25V30.75L30.1 30.8C31.5667 30.8 32.6833 30.4667 33.45 29.8C34.25 29.1 34.65 27.9833 34.65 26.45C34.65 24.9167 34.25 23.8167 33.45 23.15C32.6833 22.45 31.5667 22.1 30.1 22.1H12.2C8.5 22.1 5.61667 21.2167 3.55 19.45C1.51667 17.65 0.5 15.0167 0.5 11.55C0.5 8.08333 1.51667 5.46667 3.55 3.7C5.61667 1.9 8.5 0.999999 12.2 0.999999H40.3V7.5L13.05 7.45C11.6167 7.45 10.5 7.78333 9.7 8.45C8.9 9.08333 8.5 10.1167 8.5 11.55C8.5 12.9833 8.9 14.0333 9.7 14.7C10.5 15.3333 11.6167 15.65 13.05 15.65H30.95C34.65 15.65 37.5167 16.5667 39.55 18.4C41.6167 20.2 42.65 22.8833 42.65 26.45C42.65 29.9833 41.6167 32.6667 39.55 34.5C37.5167 36.3333 34.65 37.25 30.95 37.25H1.35ZM54.666 37V1.25H84.616C88.316 1.25 91.1827 2.18333 93.216 4.05C95.2827 5.91666 96.316 8.75 96.316 12.55C96.316 16.35 95.2827 19.1833 93.216 21.05C91.1827 22.9167 88.316 23.85 84.616 23.85H62.666V37H54.666ZM83.666 7.75H62.666V17.3L83.666 17.35C85.1327 17.35 86.2493 16.9833 87.016 16.25C87.816 15.5167 88.216 14.2833 88.216 12.55C88.216 10.7833 87.816 9.55 87.016 8.85C86.2493 8.11667 85.1327 7.75 83.666 7.75ZM100.805 37L116.905 1.25H129.255L145.355 37H136.655L133.255 29.45H112.905L109.505 37H100.805ZM115.805 22.95H130.355L123.405 7.5H122.755L115.805 22.95ZM173.785 37.25C167.185 37.25 162.135 35.7333 158.635 32.7C155.135 29.6333 153.385 25.1 153.385 19.1C153.385 13.1333 155.135 8.61667 158.635 5.55C162.135 2.48333 167.185 0.966666 173.785 0.999999L191.785 1.1V7.5H174.335C170.001 7.5 166.785 8.41667 164.685 10.25C162.585 12.0833 161.535 15.0333 161.535 19.1C161.535 23.1667 162.585 26.1333 164.685 28C166.785 29.8333 170.001 30.75 174.335 30.75H192.285V37.25H173.785ZM204.279 37V1.25H243.479V7.75H212.279V15.65H240.579V22.15H212.279V30.5H243.479V37H204.279ZM271.407 37V24.25L252.457 1.25H262.357L275.407 17.45L288.407 1.25H298.307L279.457 24.2V37H271.407Z" fill="white"/>
</svg>
